<svg width="883" height="616" viewBox="0 0 883 616" fill="none" xmlns="http://www.w3.org/2000/svg">
<g clip-path="url(#clip0)">
<rect x="272" y="103" width="365" height="376.985" rx="8.71642" fill="#F2F2F2"/>
<rect x="543.299" y="149.851" width="76.2687" height="88.2537" rx="8.71642" fill="white"/>
<path fill-rule="evenodd" clip-rule="evenodd" d="M581.433 201.06C591.061 201.06 598.866 193.255 598.866 183.627C598.866 173.999 591.061 166.194 581.433 166.194C571.805 166.194 564 173.999 564 183.627C564 193.255 571.805 201.06 581.433 201.06Z" fill="#DDE3E9"/>
<rect x="554.194" y="205.418" width="54.4776" height="6.53731" rx="3.26866" fill="#DDE3E9"/>
<rect x="562.91" y="216.313" width="37.0448" height="6.53731" rx="3.26866" fill="#DDE3E9"/>
<path d="M272 111.716C272 106.902 275.902 103 280.716 103H628.284C633.098 103 637 106.902 637 111.716V132.418H272V111.716Z" fill="#C5CFD6"/>
<path fill-rule="evenodd" clip-rule="evenodd" d="M286.164 122.612C288.571 122.612 290.522 120.661 290.522 118.254C290.522 115.847 288.571 113.896 286.164 113.896C283.757 113.896 281.806 115.847 281.806 118.254C281.806 120.661 283.757 122.612 286.164 122.612Z" fill="#F2F2F2"/>
<path fill-rule="evenodd" clip-rule="evenodd" d="M299.239 122.612C301.646 122.612 303.597 120.661 303.597 118.254C303.597 115.847 301.646 113.896 299.239 113.896C296.832 113.896 294.881 115.847 294.881 118.254C294.881 120.661 296.832 122.612 299.239 122.612Z" fill="#F2F2F2"/>
<path fill-rule="evenodd" clip-rule="evenodd" d="M312.314 122.612C314.721 122.612 316.672 120.661 316.672 118.254C316.672 115.847 314.721 113.896 312.314 113.896C309.907 113.896 307.955 115.847 307.955 118.254C307.955 120.661 309.907 122.612 312.314 122.612Z" fill="#F2F2F2"/>
<g clip-path="url(#clip1)">
<rect x="543.299" y="246.821" width="76.2687" height="211.373" rx="8.71642" fill="white"/>
<g clip-path="url(#clip2)">
<rect x="562.91" y="266.433" width="37.0448" height="28.3284" rx="4.35821" fill="#DDE3E9"/>
<rect x="562.91" y="303.478" width="37.0448" height="27.2388" rx="4.35821" fill="#AFB9C5"/>
<rect x="562.91" y="339.433" width="37.0448" height="27.2388" rx="4.35821" fill="#DDE3E9"/>
<rect x="562.91" y="411.343" width="37.0448" height="27.2388" rx="4.35821" fill="#DDE3E9"/>
<rect x="562.91" y="375.388" width="37.0448" height="27.2388" rx="4.35821" fill="#C5CFD6"/>
</g>
</g>
<g clip-path="url(#clip3)">
<g clip-path="url(#clip4)">
<rect x="289.433" y="150.94" width="245.149" height="51.209" rx="4.35821" fill="white"/>
<g clip-path="url(#clip5)">
<rect x="299.239" y="166.303" width="181.955" height="7.68134" rx="3.26866" fill="#DDE3E9"/>
<rect x="299.239" y="179.105" width="122.134" height="7.68134" rx="3.26866" fill="#DDE3E9"/>
</g>
<path fill-rule="evenodd" clip-rule="evenodd" d="M508.383 184.172C512.595 184.172 516.01 180.757 516.01 176.545C516.01 172.333 512.595 168.918 508.383 168.918C504.171 168.918 500.756 172.333 500.756 176.545C500.756 180.757 504.171 184.172 508.383 184.172Z" fill="#DDE3E9"/>
<path fill-rule="evenodd" clip-rule="evenodd" d="M508.383 179.813C510.188 179.813 511.652 178.35 511.652 176.545C511.652 174.74 510.188 173.276 508.383 173.276C506.578 173.276 505.114 174.74 505.114 176.545C505.114 178.35 506.578 179.813 508.383 179.813Z" fill="#F2F2F2"/>
</g>
<g clip-path="url(#clip6)">
<rect x="289.433" y="210.866" width="245.149" height="42.4925" rx="4.35821" fill="white"/>
<g clip-path="url(#clip7)">
<rect x="299.239" y="223.613" width="181.955" height="6.37388" rx="3.18694" fill="#DDE3E9"/>
<rect x="299.239" y="234.237" width="122.134" height="6.37388" rx="3.18694" fill="#DDE3E9"/>
</g>
<path fill-rule="evenodd" clip-rule="evenodd" d="M508.383 239.739C512.595 239.739 516.01 236.324 516.01 232.112C516.01 227.9 512.595 224.485 508.383 224.485C504.171 224.485 500.756 227.9 500.756 232.112C500.756 236.324 504.171 239.739 508.383 239.739Z" fill="#DDE3E9"/>
<path fill-rule="evenodd" clip-rule="evenodd" d="M508.383 235.381C510.188 235.381 511.652 233.917 511.652 232.112C511.652 230.307 510.188 228.843 508.383 228.843C506.578 228.843 505.114 230.307 505.114 232.112C505.114 233.917 506.578 235.381 508.383 235.381Z" fill="#F2F2F2"/>
</g>
<g clip-path="url(#clip8)">
<rect x="289.433" y="262.075" width="245.149" height="42.4925" rx="4.35821" fill="white"/>
<g clip-path="url(#clip9)">
<rect x="299.239" y="274.822" width="181.955" height="6.37388" rx="3.18694" fill="#DDE3E9"/>
<rect x="299.239" y="285.446" width="122.134" height="6.37388" rx="3.18694" fill="#DDE3E9"/>
</g>
<path fill-rule="evenodd" clip-rule="evenodd" d="M508.383 290.948C512.595 290.948 516.01 287.533 516.01 283.321C516.01 279.109 512.595 275.694 508.383 275.694C504.171 275.694 500.756 279.109 500.756 283.321C500.756 287.533 504.171 290.948 508.383 290.948Z" fill="#DDE3E9"/>
<path fill-rule="evenodd" clip-rule="evenodd" d="M508.383 286.59C510.188 286.59 511.652 285.126 511.652 283.321C511.652 281.516 510.188 280.052 508.383 280.052C506.578 280.052 505.114 281.516 505.114 283.321C505.114 285.126 506.578 286.59 508.383 286.59Z" fill="#AFB9C5"/>
</g>
<g clip-path="url(#clip10)">
<rect x="289.433" y="415.702" width="245.149" height="42.4925" rx="4.35821" fill="white"/>
<g clip-path="url(#clip11)">
<rect x="299.239" y="428.449" width="181.955" height="6.37388" rx="3.18694" fill="#DDE3E9"/>
<rect x="299.239" y="439.072" width="122.134" height="6.37388" rx="3.18694" fill="#DDE3E9"/>
</g>
<path fill-rule="evenodd" clip-rule="evenodd" d="M508.383 444.575C512.595 444.575 516.01 441.16 516.01 436.948C516.01 432.736 512.595 429.321 508.383 429.321C504.171 429.321 500.756 432.736 500.756 436.948C500.756 441.16 504.171 444.575 508.383 444.575Z" fill="#DDE3E9"/>
<path fill-rule="evenodd" clip-rule="evenodd" d="M508.383 440.216C510.188 440.216 511.652 438.753 511.652 436.948C511.652 435.143 510.188 433.679 508.383 433.679C506.578 433.679 505.114 435.143 505.114 436.948C505.114 438.753 506.578 440.216 508.383 440.216Z" fill="#F2F2F2"/>
</g>
<g clip-path="url(#clip12)">
<rect x="289.433" y="364.493" width="245.149" height="42.4925" rx="4.35821" fill="white"/>
<g clip-path="url(#clip13)">
<rect x="299.239" y="377.24" width="181.955" height="6.37388" rx="3.18694" fill="#DDE3E9"/>
<rect x="299.239" y="387.863" width="122.134" height="6.37388" rx="3.18694" fill="#DDE3E9"/>
</g>
<path fill-rule="evenodd" clip-rule="evenodd" d="M508.383 393.366C512.595 393.366 516.01 389.951 516.01 385.739C516.01 381.527 512.595 378.112 508.383 378.112C504.171 378.112 500.756 381.527 500.756 385.739C500.756 389.951 504.171 393.366 508.383 393.366Z" fill="#DDE3E9"/>
<path fill-rule="evenodd" clip-rule="evenodd" d="M508.383 389.007C510.188 389.007 511.652 387.544 511.652 385.739C511.652 383.934 510.188 382.47 508.383 382.47C506.578 382.47 505.114 383.934 505.114 385.739C505.114 387.544 506.578 389.007 508.383 389.007Z" fill="#F2F2F2"/>
</g>
<g clip-path="url(#clip14)">
<rect x="289.433" y="313.284" width="245.149" height="42.4925" rx="4.35821" fill="white"/>
<g clip-path="url(#clip15)">
<rect x="299.239" y="326.031" width="181.955" height="6.37388" rx="3.18694" fill="#DDE3E9"/>
<rect x="299.239" y="336.654" width="122.134" height="6.37388" rx="3.18694" fill="#DDE3E9"/>
</g>
<path fill-rule="evenodd" clip-rule="evenodd" d="M508.383 342.157C512.595 342.157 516.01 338.742 516.01 334.53C516.01 330.318 512.595 326.903 508.383 326.903C504.171 326.903 500.756 330.318 500.756 334.53C500.756 338.742 504.171 342.157 508.383 342.157Z" fill="#DDE3E9"/>
<path fill-rule="evenodd" clip-rule="evenodd" d="M508.383 337.799C510.188 337.799 511.652 336.335 511.652 334.53C511.652 332.725 510.188 331.261 508.383 331.261C506.578 331.261 505.114 332.725 505.114 334.53C505.114 336.335 506.578 337.799 508.383 337.799Z" fill="#F2F2F2"/>
</g>
</g>
</g>
<rect x="88" y="16" width="172" height="327" rx="8" fill="#F2F2F2"/>
<path fill-rule="evenodd" clip-rule="evenodd" d="M173 312C181.284 312 188 305.284 188 297C188 288.716 181.284 282 173 282C164.716 282 158 288.716 158 297C158 305.284 164.716 312 173 312Z" fill="white"/>
<path fill-rule="evenodd" clip-rule="evenodd" d="M160 49C161.105 49 162 48.1046 162 47C162 45.8954 161.105 45 160 45C158.895 45 158 45.8954 158 47C158 48.1046 158.895 49 160 49Z" fill="white"/>
<rect x="167" y="45" width="21" height="4" rx="2" fill="white"/>
<rect x="102" y="44" width="144" height="54" rx="4" fill="white"/>
<g clip-path="url(#clip16)">
<rect x="141" y="60.2" width="86" height="8.1" rx="3" fill="#DDE3E9"/>
<rect x="141" y="73.7" width="57.726" height="8.1" rx="3" fill="#DDE3E9"/>
</g>
<path fill-rule="evenodd" clip-rule="evenodd" d="M123 83C129.627 83 135 77.6274 135 71C135 64.3726 129.627 59 123 59C116.373 59 111 64.3726 111 71C111 77.6274 116.373 83 123 83Z" fill="#C5CFD6"/>
<rect x="102" y="106" width="144" height="42" rx="4" fill="white"/>
<g clip-path="url(#clip17)">
<rect x="141" y="118.6" width="86" height="6.3" rx="3" fill="#DDE3E9"/>
<rect x="141" y="129.1" width="57.726" height="6.3" rx="3" fill="#DDE3E9"/>
</g>
<path fill-rule="evenodd" clip-rule="evenodd" d="M123 139C129.627 139 135 133.627 135 127C135 120.373 129.627 115 123 115C116.373 115 111 120.373 111 127C111 133.627 116.373 139 123 139Z" fill="#C5CFD6"/>
<rect x="102" y="156" width="144" height="42" rx="4" fill="white"/>
<g clip-path="url(#clip18)">
<rect x="141" y="168.6" width="86" height="6.3" rx="3" fill="#DDE3E9"/>
<rect x="141" y="179.1" width="57.726" height="6.3" rx="3" fill="#DDE3E9"/>
</g>
<path fill-rule="evenodd" clip-rule="evenodd" d="M123 189C129.627 189 135 183.627 135 177C135 170.373 129.627 165 123 165C116.373 165 111 170.373 111 177C111 183.627 116.373 189 123 189Z" fill="#AFB9C5"/>
<rect x="102" y="206" width="144" height="42" rx="4" fill="white"/>
<g clip-path="url(#clip19)">
<rect x="141" y="218.6" width="86" height="6.3" rx="3" fill="#DDE3E9"/>
<rect x="141" y="229.1" width="57.726" height="6.3" rx="3" fill="#DDE3E9"/>
</g>
<path fill-rule="evenodd" clip-rule="evenodd" d="M123 239C129.627 239 135 233.627 135 227C135 220.373 129.627 215 123 215C116.373 215 111 220.373 111 227C111 233.627 116.373 239 123 239Z" fill="#C5CFD6"/>
<path fill-rule="evenodd" clip-rule="evenodd" d="M292.648 223.252C299.9 227.623 307.026 229.735 310.372 228.872C318.76 226.711 319.531 196.033 313.041 183.939C306.55 171.844 273.185 166.573 271.504 190.536C270.92 198.852 274.413 206.274 279.574 212.331L270.32 255.451H297.2L292.648 223.252Z" fill="#B28B67"/>
<path fill-rule="evenodd" clip-rule="evenodd" d="M293.992 193.182C296.317 189.721 298.549 187.081 301.452 185.548C313.27 185.734 314.653 183.616 314.653 176.478C312.745 175.113 306.01 172.813 298.468 172.167C294.621 171.066 290.063 171.273 285.672 173.109C280.252 174.647 275.663 177.958 273.636 184.156C266.302 196.81 271.868 209.982 279.37 214.482C281.367 212.116 283.11 209.824 284.664 207.63C283.415 206.41 282.64 204.708 282.64 202.824C282.64 199.114 285.649 196.106 289.36 196.106C289.633 196.106 289.902 196.122 290.166 196.153C290.333 200.793 291.02 216.487 292.826 221.939C294.954 228.367 307.374 229.945 311.705 229.945C315.447 229.945 315.319 226.403 315.228 223.864C315.215 223.499 315.202 223.154 315.202 222.844C315.202 222.195 314.359 222.197 313.405 222.199C312.168 222.201 310.745 222.204 310.745 220.784C310.745 219.237 312.884 218.05 314.799 216.987C315.993 216.325 317.1 215.71 317.545 215.088C318.949 213.123 319.422 210.473 317.304 210.473C316.146 210.473 314.557 211.14 312.646 211.943C309.761 213.155 306.141 214.676 302.157 214.676C295.576 214.676 294.011 193.448 293.992 193.182Z" fill="#191847"/>
<path fill-rule="evenodd" clip-rule="evenodd" d="M261.36 348.387L301.966 490.846L331.592 595.845H353.2L321.718 348.387H261.36Z" fill="#191847"/>
<path fill-rule="evenodd" clip-rule="evenodd" d="M250.501 348.387C249.562 421.812 246.359 461.86 245.373 468.531C244.387 475.202 229.476 517.64 200.641 595.845H223.025C259.735 520.82 280.227 478.382 284.502 468.531C288.777 458.679 301.969 418.631 321.84 348.387H250.501Z" fill="#2F3676"/>
<path fill-rule="evenodd" clip-rule="evenodd" d="M198.64 616L199.76 592.486L223.28 592.486C240.009 604.243 266.96 611.521 266.96 611.521V616H224.4L209.84 613.761V616H198.64Z" fill="#191847"/>
<path fill-rule="evenodd" clip-rule="evenodd" d="M328.56 616L329.68 592.486L353.2 592.486C369.929 604.243 396.88 611.521 396.88 611.521V616H354.32L339.76 613.761V616H328.56Z" fill="#191847"/>
<path fill-rule="evenodd" clip-rule="evenodd" d="M174.408 389.015C178.585 382.879 202.747 317.635 202.747 317.635L222.584 320.515C222.584 320.515 190.644 389.797 188.337 393.796C185.341 398.99 187.991 407.521 189.789 413.306C190.067 414.201 190.324 415.03 190.537 415.771C186.762 416.861 185.326 414.701 183.811 412.423C182.101 409.851 180.291 407.128 174.899 408.771C172.816 409.406 170.815 410.221 168.859 411.018C162.105 413.769 155.9 416.297 148.774 410.386C147.644 409.449 146.692 406.386 150.283 404.6C159.23 400.153 172.366 392.014 174.408 389.015ZM389.651 358.691L355.842 330.035L346.602 348.955L380.87 366.053C390.032 378.472 395.271 383.749 396.589 381.883C397.7 380.309 397.029 378.717 396.411 377.25C395.929 376.107 395.48 375.04 395.93 374.119C396.958 372.013 403.647 372.71 409.966 373.643C416.285 374.576 414.632 371.62 413.197 370.117C406.983 365.783 399.135 361.974 389.651 358.691Z" fill="#B28B67"/>
<path fill-rule="evenodd" clip-rule="evenodd" d="M285.658 236.787L297.95 232.723C314.624 274.366 339.492 314.657 381.04 348.69L370.765 366.411C334.25 344.907 299.685 328.202 285.658 295.934C280.951 285.104 285.274 249.737 285.658 236.787Z" fill="#C5CFD6"/>
<path fill-rule="evenodd" clip-rule="evenodd" d="M243.44 353.986C243.44 353.986 296.256 359.585 326.585 353.986C329.09 353.523 329.485 349.331 328.323 346.485C310.233 302.17 297.827 263.503 297.827 232.723C292.848 235.233 280.4 233.476 280.4 233.476C258.096 265.195 247.844 301.59 243.44 353.986Z" fill="#323337"/>
<path fill-rule="evenodd" clip-rule="evenodd" d="M274.008 230.817C274.584 230.429 274.888 230.236 274.888 230.236L274.855 230.817H284.15C284.617 233.563 285.301 243.742 286.299 258.584C289.924 312.517 297.688 428.029 314.213 472.235H200.192C202.597 421.977 221.131 361.876 240.331 310.844C226.163 324.936 209.617 348.559 196.245 387.883L174.888 382.402C196.653 288.637 260.421 240.28 272.795 231.65C272.916 231.371 273.036 231.093 273.155 230.817H274.008Z" fill="#DDE3E9"/>
<path fill-rule="evenodd" clip-rule="evenodd" d="M585.456 218.287C572.466 218.287 567.741 202.741 560.36 194.21C555.08 188.106 546.067 189.926 543.4 181.381C536.692 159.893 554.646 144.77 578.068 144.77C601.49 144.77 617.283 158.034 620.693 177.973C624.103 197.911 608.879 218.287 585.456 218.287Z" fill="#191847"/>
<path fill-rule="evenodd" clip-rule="evenodd" d="M570.753 215.489C563.393 219.923 556.161 222.066 552.766 221.191C544.253 218.998 543.47 187.87 550.057 175.598C556.644 163.326 590.505 157.978 592.212 182.292C592.804 190.731 589.26 198.261 584.022 204.407L593.413 248.16H566.133L570.753 215.489Z" fill="#B28B67"/>
<path fill-rule="evenodd" clip-rule="evenodd" d="M590.439 165.221C611.334 185.671 590.359 207.408 584.612 207.408C584.241 204.457 583.109 201.587 581.451 198.855C582.332 197.715 582.853 196.297 582.853 194.761C582.853 190.996 579.72 187.944 575.855 187.944C574.648 187.944 573.513 188.241 572.521 188.766C564.144 181.624 553.637 176.646 548.42 175.667C539.346 173.964 569.543 144.77 590.439 165.221Z" fill="#191847"/>
<path fill-rule="evenodd" clip-rule="evenodd" d="M602.507 342.46L559.733 482.234L539.012 601.103H522.766L544.661 342.46H602.507Z" fill="#997659"/>
<path fill-rule="evenodd" clip-rule="evenodd" d="M617.809 342.46C614.904 419.203 618.323 458.789 618.973 465.762C619.623 472.734 628.527 517.944 649.606 603.443L632.294 597.5C598.981 519.085 587.629 478.331 583.808 468.034C579.987 457.737 569.84 415.879 553.365 342.46H617.809Z" fill="#B28B67"/>
<path fill-rule="evenodd" clip-rule="evenodd" d="M646.598 596.024C647.667 595.546 648.939 596.024 649.343 597.122C650.178 599.395 651.383 603.022 651.383 605.031C651.383 608.104 650.359 614 650.359 614C646.792 614 586.249 614 586.249 614C586.249 614 583.75 605.742 589.134 605.084C594.518 604.425 598.079 603.895 598.079 603.895L628.006 590.559C628.52 590.33 629.122 590.571 629.337 591.092L631.306 595.866C631.306 595.866 636.29 598.19 639.407 598.19C641.39 598.19 644.557 596.936 646.598 596.024Z" fill="#E4E4E4"/>
<path fill-rule="evenodd" clip-rule="evenodd" d="M539.751 596.024C540.82 595.546 542.093 596.024 542.496 597.122C543.332 599.395 544.537 603.022 544.537 605.031C544.537 608.104 543.512 614 543.512 614C539.945 614 479.402 614 479.402 614C479.402 614 476.903 605.742 482.287 605.084C487.671 604.425 491.233 603.895 491.233 603.895L521.159 590.559C521.674 590.33 522.276 590.571 522.491 591.092L524.459 595.866C524.459 595.866 529.444 598.19 532.56 598.19C534.543 598.19 537.711 596.936 539.751 596.024Z" fill="#E4E4E4"/>
<path fill-rule="evenodd" clip-rule="evenodd" d="M608.19 342.46L590.003 413.673H534.454L542.737 342.46H608.19Z" fill="#69A1AC"/>
<path fill-rule="evenodd" clip-rule="evenodd" d="M618.42 342.46C627.396 369.354 621.83 413.673 621.83 413.673H565.144L549.557 342.46H618.42Z" fill="#89C5CC"/>
<path fill-rule="evenodd" clip-rule="evenodd" d="M470.23 355.818L502.429 324.421L513.124 342.917L479.641 362.649C471.245 375.868 466.315 381.58 464.848 379.785C463.612 378.27 464.179 376.611 464.701 375.082C465.107 373.892 465.487 372.78 464.966 371.879C463.776 369.821 457.053 371 450.722 372.391C444.39 373.782 445.855 370.673 447.201 369.051C453.185 364.224 460.861 359.813 470.23 355.818ZM660.024 401.436C656.693 394.681 645.35 328.849 645.35 328.849L621.597 328.942C621.597 328.942 643.596 399.929 645.35 404.273C647.628 409.915 643.759 418.113 641.135 423.672C640.729 424.532 640.353 425.329 640.034 426.043C643.675 427.672 645.423 425.704 647.267 423.629C649.349 421.285 651.553 418.805 656.739 421.217C658.743 422.149 660.64 423.251 662.492 424.327C668.892 428.046 674.77 431.461 682.768 426.529C684.036 425.747 685.425 422.803 682.068 420.502C673.705 414.77 661.653 404.738 660.024 401.436Z" fill="#B28B67"/>
<path fill-rule="evenodd" clip-rule="evenodd" d="M577.847 229.222L568.018 227.537C551.096 269.791 521.551 308.184 479.385 342.716L511.248 381.409C553.41 332.24 579.398 281.511 577.847 229.222Z" fill="#191847"/>
<path fill-rule="evenodd" clip-rule="evenodd" d="M620.693 352.685H533.17C533.17 352.685 563.586 278.765 563.586 227.096L589.987 223.164C610.736 256.52 616.596 297.587 620.693 352.685Z" fill="#DDE3E9"/>
<path fill-rule="evenodd" clip-rule="evenodd" d="M660.477 390.178C650.905 282.24 590.567 223.164 590.567 223.164L590.546 223.183C590.543 223.177 590.539 223.171 590.536 223.164H588.813C585.719 223.271 579.39 223.548 579.39 223.548L573.01 241.771C571.998 275.098 561.188 376.097 561.188 376.097H618.477C618.38 380.728 618.164 385.424 617.817 390.178H660.477Z" fill="#2F3676"/>
<path fill-rule="evenodd" clip-rule="evenodd" d="M618.467 376.545C618.924 356.378 617.135 337.443 614.149 320.307C612.587 340.641 609.323 365.108 602.507 376.545H618.467Z" fill="black" fill-opacity="0.1"/>
<path fill-rule="evenodd" clip-rule="evenodd" d="M605.791 341.324L577.5 328.178V341.324H605.791Z" fill="white" fill-opacity="0.2"/>
<path fill-rule="evenodd" clip-rule="evenodd" d="M32.2089 179.602C30.5701 181.336 28.2485 182.425 25.6665 182.425C20.7052 182.425 16.6832 178.429 16.6832 173.5C16.6832 168.571 20.7052 164.575 25.6665 164.575V148C11.5525 148 0 159.478 0 173.5C0 187.522 11.5525 199 25.6665 199C33.0802 199 39.7805 195.884 44.3478 190.927L32.2089 179.602Z" fill="#F2F2F2"/>
<path fill-rule="evenodd" clip-rule="evenodd" d="M25.5 148V164.575C30.4291 164.575 34.425 168.571 34.425 173.5H51C51 159.478 39.5225 148 25.5 148Z" fill="#AFB9C5"/>
<path fill-rule="evenodd" clip-rule="evenodd" d="M34.4502 173.5C34.4502 176.333 33.116 178.851 31.0435 180.477L41.2394 193.457C47.1744 188.81 51 181.607 51 173.5H34.4502Z" fill="#C5CFD6"/>
<path fill-rule="evenodd" clip-rule="evenodd" d="M794.367 456.7C792.567 458.604 790.018 459.8 787.183 459.8C781.735 459.8 777.319 455.412 777.319 450C777.319 444.588 781.735 440.2 787.183 440.2V422C771.685 422 759 434.603 759 450C759 465.397 771.685 478 787.183 478C795.323 478 802.681 474.578 807.696 469.135L794.367 456.7Z" fill="#F2F2F2"/>
<path fill-rule="evenodd" clip-rule="evenodd" d="M787 422V440.2C792.412 440.2 796.8 444.588 796.8 450H815C815 434.603 802.397 422 787 422Z" fill="#AFB9C5"/>
<path fill-rule="evenodd" clip-rule="evenodd" d="M796.828 450C796.828 453.111 795.363 455.876 793.087 457.661L804.282 471.913C810.799 466.811 815 458.902 815 450H796.828Z" fill="#C5CFD6"/>
<rect x="434" y="52" width="6" height="25" rx="3" fill="#DDE3E9"/>
<rect x="448" y="36" width="6" height="41" rx="3" fill="#DDE3E9"/>
<rect x="462" y="28" width="6" height="49" rx="3" fill="#DDE3E9"/>
<rect x="476" y="36" width="6" height="41" rx="3" fill="#DDE3E9"/>
<rect x="490" y="20" width="6" height="57" rx="3" fill="#C5CFD6"/>
<path fill-rule="evenodd" clip-rule="evenodd" d="M827.726 160.063C827.721 160.075 827.717 160.087 827.71 160.101C827.717 160.089 827.726 160.042 827.726 160.063" fill="#C5CFD6"/>
<path fill-rule="evenodd" clip-rule="evenodd" d="M827.715 160.081C827.715 160.083 827.713 160.088 827.713 160.093C827.713 160.081 827.734 160.046 827.715 160.081" fill="#C5CFD6"/>
<path fill-rule="evenodd" clip-rule="evenodd" d="M827.796 159.882C827.779 159.929 827.758 159.974 827.74 160.021C827.749 159.997 827.758 159.979 827.768 159.955C827.526 160.566 827.68 160.169 827.796 159.882" fill="#C5CFD6"/>
<path fill-rule="evenodd" clip-rule="evenodd" d="M827.744 160.024C827.734 160.045 827.725 160.068 827.716 160.09C827.648 160.221 827.744 160.024 827.744 160.024" fill="#C5CFD6"/>
<path fill-rule="evenodd" clip-rule="evenodd" d="M827.717 160.082C827.717 160.079 827.717 160.079 827.719 160.077C827.717 160.079 827.717 160.079 827.717 160.082" fill="#C5CFD6"/>
<path fill-rule="evenodd" clip-rule="evenodd" d="M827.705 160.099C827.692 160.127 827.77 159.991 827.705 160.099Z" fill="#C5CFD6"/>
<path fill-rule="evenodd" clip-rule="evenodd" d="M827.715 160.082L827.72 160.077C827.718 160.079 827.718 160.082 827.715 160.082" fill="#C5CFD6"/>
<rect x="772" y="99" width="110.275" height="74" rx="4" fill="#DDE3E9"/>
<path fill-rule="evenodd" clip-rule="evenodd" d="M813.788 120.143L781.286 173H846.29L813.788 120.143Z" fill="#AFB9C5"/>
<path fill-rule="evenodd" clip-rule="evenodd" d="M845.71 134.238L817.271 173H874.149L845.71 134.238Z" fill="#C5CFD6"/>
<path fill-rule="evenodd" clip-rule="evenodd" d="M857.898 134.238C863.668 134.238 868.345 129.505 868.345 123.667C868.345 117.828 863.668 113.095 857.898 113.095C852.128 113.095 847.451 117.828 847.451 123.667C847.451 129.505 852.128 134.238 857.898 134.238Z" fill="white"/>
<path fill-rule="evenodd" clip-rule="evenodd" d="M84.3913 524.474C84.3843 524.492 84.3772 524.51 84.3667 524.531C84.3772 524.513 84.3913 524.442 84.3913 524.474" fill="#C5CFD6"/>
<path fill-rule="evenodd" clip-rule="evenodd" d="M84.3749 524.501C84.3749 524.505 84.3714 524.512 84.3714 524.519C84.3714 524.501 84.403 524.448 84.3749 524.501" fill="#C5CFD6"/>
<path fill-rule="evenodd" clip-rule="evenodd" d="M84.497 524.2C84.4724 524.272 84.4408 524.339 84.4126 524.41C84.4267 524.375 84.4408 524.346 84.4548 524.311C84.0892 525.236 84.3212 524.634 84.497 524.2" fill="#C5CFD6"/>
<path fill-rule="evenodd" clip-rule="evenodd" d="M84.4183 524.415C84.4043 524.447 84.3902 524.482 84.3761 524.514C84.2742 524.713 84.4183 524.415 84.4183 524.415" fill="#C5CFD6"/>
<path fill-rule="evenodd" clip-rule="evenodd" d="M84.3772 524.502C84.3772 524.499 84.3772 524.499 84.3807 524.495C84.3772 524.499 84.3772 524.499 84.3772 524.502" fill="#C5CFD6"/>
<path fill-rule="evenodd" clip-rule="evenodd" d="M84.3606 524.528C84.3395 524.57 84.459 524.364 84.3606 524.528Z" fill="#C5CFD6"/>
<path fill-rule="evenodd" clip-rule="evenodd" d="M84.3755 524.502L84.3825 524.495C84.379 524.499 84.379 524.502 84.3755 524.502" fill="#C5CFD6"/>
<rect y="432" width="167" height="112.066" rx="4" fill="#DDE3E9"/>
<path fill-rule="evenodd" clip-rule="evenodd" d="M63.2843 464.019L14.0632 544.066H112.505L63.2843 464.019Z" fill="#AFB9C5"/>
<path fill-rule="evenodd" clip-rule="evenodd" d="M111.627 485.365L68.5581 544.066H154.695L111.627 485.365Z" fill="#C5CFD6"/>
<path fill-rule="evenodd" clip-rule="evenodd" d="M130.084 485.365C138.822 485.365 145.905 478.197 145.905 469.355C145.905 460.513 138.822 453.346 130.084 453.346C121.347 453.346 114.263 460.513 114.263 469.355C114.263 478.197 121.347 485.365 130.084 485.365Z" fill="white"/>
<path fill-rule="evenodd" clip-rule="evenodd" d="M629.14 218C627.815 218 626.494 218.027 625.171 218.095C624.162 218.148 622.621 217.939 621.768 218.568C620.881 219.221 620.942 220.557 621.081 221.501C621.813 226.493 623.6 230.919 627.339 234.456C633.096 239.901 639.695 242.668 647.504 243.9C652.99 244.766 658.054 243.564 662.092 239.663C665.043 245.139 667.281 251.199 668.404 257.315C668.958 260.333 669.127 263.315 669.03 266.388C668.967 268.356 668.859 270.32 668.648 272.279C668.556 273.13 668.122 274.418 668.455 275.223C668.846 276.167 670.165 276.259 670.757 275.453C671.25 274.783 671.16 273.466 671.261 272.673C671.429 271.355 671.584 270.036 671.695 268.712C671.876 266.569 672.009 264.42 672 262.268C671.977 257.435 670.902 252.583 669.432 247.995C666.612 239.192 662.037 231.369 654.921 225.231C650.545 221.457 645.537 219.929 639.856 219.108C636.318 218.597 632.723 218 629.14 218" fill="#89C5CC"/>
<path fill-rule="evenodd" clip-rule="evenodd" d="M649.571 253C635.272 253 625.642 264.524 621.089 276.502C619.372 281.016 618.97 285.974 618.308 290.714C618.096 292.236 618.175 294.554 617.557 295.909C617.333 296.401 616.819 296.577 617.065 297.247C617.214 297.652 617.505 297.901 617.944 297.981C618.843 298.147 620.115 297.167 620.886 296.781C627.282 293.573 631.484 288.613 634.912 282.545C637.038 278.784 639.194 274.879 640.456 270.75C641.227 268.227 641.676 265.571 641.94 262.954C642.044 261.923 642.144 260.868 642.138 259.832C642.132 258.803 641.653 258.259 641.309 257.364C646.08 255.558 651.466 255.066 656.299 256.937C660.769 258.668 664.482 262.013 666.561 266.216C667.101 267.308 667.518 268.46 667.821 269.636C668.02 270.406 668.029 271.404 668.398 272.1C669.29 273.788 671.168 272.66 670.988 271.089C670.485 266.708 667.979 262.309 664.775 259.263C660.734 255.421 655.258 253 649.571 253" fill="#89C5CC"/>
<rect x="665" width="159" height="302" rx="8" fill="#DDE3E9"/>
<path fill-rule="evenodd" clip-rule="evenodd" d="M744 283C752.284 283 759 276.284 759 268C759 259.716 752.284 253 744 253C735.716 253 729 259.716 729 268C729 276.284 735.716 283 744 283Z" fill="white"/>
<path fill-rule="evenodd" clip-rule="evenodd" d="M731 20C732.105 20 733 19.1046 733 18C733 16.8954 732.105 16 731 16C729.895 16 729 16.8954 729 18C729 19.1046 729.895 20 731 20Z" fill="white"/>
<rect x="738" y="16" width="21" height="4" rx="2" fill="white"/>
<rect x="679" y="28" width="131" height="54" rx="4" fill="white"/>
<g clip-path="url(#clip20)">
<rect x="688" y="44.2" width="73" height="8.1" rx="3" fill="#DDE3E9"/>
<rect x="688" y="57.7" width="49" height="8.1" rx="3" fill="#DDE3E9"/>
</g>
<path fill-rule="evenodd" clip-rule="evenodd" d="M796 62C799.866 62 803 58.866 803 55C803 51.134 799.866 48 796 48C792.134 48 789 51.134 789 55C789 58.866 792.134 62 796 62Z" fill="#DDE3E9"/>
<path fill-rule="evenodd" clip-rule="evenodd" d="M796 58C797.657 58 799 56.6569 799 55C799 53.3431 797.657 52 796 52C794.343 52 793 53.3431 793 55C793 56.6569 794.343 58 796 58Z" fill="#F2F2F2"/>
<rect x="679" y="90" width="131" height="42" rx="4" fill="white"/>
<g clip-path="url(#clip21)">
<rect x="718" y="102.6" width="73" height="6.3" rx="3" fill="#DDE3E9"/>
<rect x="718" y="113.1" width="49" height="6.3" rx="3" fill="#DDE3E9"/>
</g>
<path fill-rule="evenodd" clip-rule="evenodd" d="M700 123C706.627 123 712 117.627 712 111C712 104.373 706.627 99 700 99C693.373 99 688 104.373 688 111C688 117.627 693.373 123 700 123Z" fill="#C5CFD6"/>
<rect x="679" y="140" width="131" height="42" rx="4" fill="white"/>
<g clip-path="url(#clip22)">
<rect x="688" y="152.6" width="73" height="6.3" rx="3" fill="#DDE3E9"/>
<rect x="688" y="163.1" width="49" height="6.3" rx="3" fill="#AFB9C5"/>
</g>
<path fill-rule="evenodd" clip-rule="evenodd" d="M796 168C799.866 168 803 164.866 803 161C803 157.134 799.866 154 796 154C792.134 154 789 157.134 789 161C789 164.866 792.134 168 796 168Z" fill="#DDE3E9"/>
<path fill-rule="evenodd" clip-rule="evenodd" d="M796 164C797.657 164 799 162.657 799 161C799 159.343 797.657 158 796 158C794.343 158 793 159.343 793 161C793 162.657 794.343 164 796 164Z" fill="#F2F2F2"/>
<rect x="679" y="190" width="131" height="42" rx="4" fill="white"/>
<g clip-path="url(#clip23)">
<rect x="718" y="202.6" width="73" height="6.3" rx="3" fill="#DDE3E9"/>
<rect x="718" y="213.1" width="49" height="6.3" rx="3" fill="#DDE3E9"/>
</g>
<path fill-rule="evenodd" clip-rule="evenodd" d="M700 223C706.627 223 712 217.627 712 211C712 204.373 706.627 199 700 199C693.373 199 688 204.373 688 211C688 217.627 693.373 223 700 223Z" fill="#C5CFD6"/>
<defs>
<clipPath id="clip0">
<rect width="365" height="376.985" fill="white" transform="translate(272 103)"/>
</clipPath>
<clipPath id="clip1">
<rect width="76.2687" height="211.373" fill="white" transform="translate(543.299 246.821)"/>
</clipPath>
<clipPath id="clip2">
<rect width="37.0448" height="172.149" fill="white" transform="translate(562.91 266.433)"/>
</clipPath>
<clipPath id="clip3">
<rect width="245.149" height="307.254" fill="white" transform="translate(289.433 150.94)"/>
</clipPath>
<clipPath id="clip4">
<rect width="245.149" height="51.209" fill="white" transform="translate(289.433 150.94)"/>
</clipPath>
<clipPath id="clip5">
<rect width="181.955" height="20.4836" fill="white" transform="translate(299.239 166.303)"/>
</clipPath>
<clipPath id="clip6">
<rect width="245.149" height="42.4925" fill="white" transform="translate(289.433 210.866)"/>
</clipPath>
<clipPath id="clip7">
<rect width="181.955" height="16.997" fill="white" transform="translate(299.239 223.613)"/>
</clipPath>
<clipPath id="clip8">
<rect width="245.149" height="42.4925" fill="white" transform="translate(289.433 262.075)"/>
</clipPath>
<clipPath id="clip9">
<rect width="181.955" height="16.997" fill="white" transform="translate(299.239 274.822)"/>
</clipPath>
<clipPath id="clip10">
<rect width="245.149" height="42.4925" fill="white" transform="translate(289.433 415.702)"/>
</clipPath>
<clipPath id="clip11">
<rect width="181.955" height="16.997" fill="white" transform="translate(299.239 428.449)"/>
</clipPath>
<clipPath id="clip12">
<rect width="245.149" height="42.4925" fill="white" transform="translate(289.433 364.493)"/>
</clipPath>
<clipPath id="clip13">
<rect width="181.955" height="16.997" fill="white" transform="translate(299.239 377.24)"/>
</clipPath>
<clipPath id="clip14">
<rect width="245.149" height="42.4925" fill="white" transform="translate(289.433 313.284)"/>
</clipPath>
<clipPath id="clip15">
<rect width="181.955" height="16.997" fill="white" transform="translate(299.239 326.031)"/>
</clipPath>
<clipPath id="clip16">
<rect width="86" height="21.6" fill="white" transform="translate(141 60.2)"/>
</clipPath>
<clipPath id="clip17">
<rect width="86" height="16.8" fill="white" transform="translate(141 118.6)"/>
</clipPath>
<clipPath id="clip18">
<rect width="86" height="16.8" fill="white" transform="translate(141 168.6)"/>
</clipPath>
<clipPath id="clip19">
<rect width="86" height="16.8" fill="white" transform="translate(141 218.6)"/>
</clipPath>
<clipPath id="clip20">
<rect width="73" height="21.6" fill="white" transform="translate(688 44.2)"/>
</clipPath>
<clipPath id="clip21">
<rect width="73" height="16.8" fill="white" transform="translate(718 102.6)"/>
</clipPath>
<clipPath id="clip22">
<rect width="73" height="16.8" fill="white" transform="translate(688 152.6)"/>
</clipPath>
<clipPath id="clip23">
<rect width="73" height="16.8" fill="white" transform="translate(718 202.6)"/>
</clipPath>
</defs>
</svg>
